<?xml version="1.0" encoding="UTF-8"?>
<svg id="Layer_1" data-name="Layer 1" xmlns="http://www.w3.org/2000/svg" viewBox="0 0 500 500">
  <defs>
    <style>
      .cls-1 {
        fill: #231f20;
      }
    </style>
  </defs>
  <path class="cls-1" d="M419.88,113.24C395.3,48.25,329.18,1.64,261.72,0h-23.44C129.26,3.34,49.93,108.7,70.16,215.09c13.04,68.6,60.19,142.13,100.49,198.5,19.15,26.79,40.49,55.97,63.2,79.56,3.78,3.93,6.47,6.4,12.24,6.86h7.81c6.06-.44,8.92-3.35,12.84-7.49,38.02-40.15,72.65-88.8,101.42-136.24,44.54-73.43,84.2-157.11,51.7-243.04ZM325.01,232.73c-36.24,52.68-114.53,52.25-150.43-.57-39.58-58.25-.2-137.16,69.36-142.02,75.36-5.26,124.12,80,81.07,142.59Z"/>
</svg>