<?xml version="1.0" encoding="UTF-8"?>
<svg id="Layer_1" data-name="Layer 1" xmlns="http://www.w3.org/2000/svg" viewBox="0 0 500 500.1">
  <path d="M430.71,313.05c-.17-4.89-1.41-10.08-4.9-13.66l-166.02-166.01c-5.43-4.83-14.15-4.83-19.58,0-56.04,57.18-114.49,112.42-169.11,170.73l-1.8,8.94c1.94,38.43-2.43,79.11,0,117.27,1.46,22.99,20.1,52.21,45.45,52.21h88.38v-127.93h93.75v127.93h88.38c25.35,0,43.99-29.22,45.45-52.21,2.43-38.16-1.94-78.84,0-117.27Z"/>
  <path d="M492.21,229.08l-76.97-77.33-.87-94.84c-6.84-24.3-40.53-28.3-52.1-5.58-.51,1-2.9,6.47-2.9,6.87v36.62c-1.7.43-1.95-.7-2.94-1.46-26.59-20.37-50.26-61.87-83.23-72.04-25.25-7.79-51.23-2.79-71.57,13.9L7.79,229.08c-21.43,25.98,9.19,60.18,37.07,41.95L235.82,80.16c10.33-8.52,18.04-8.51,28.37,0l190.41,190.45c27.77,18.98,59.33-15.19,37.62-41.52Z"/>
</svg>