<?xml version="1.0" encoding="UTF-8"?>
<svg id="Layer_1" xmlns="http://www.w3.org/2000/svg" version="1.1" viewBox="0 0 24 24">
  <!-- Generator: Adobe Illustrator 29.3.1, SVG Export Plug-In . SVG Version: 2.1.0 Build 151)  -->
  <path d="M23.54,20.71l-5.65-5.7c.17-.38.41-.76.59-1.16,2.21-4.87,0-10.61-4.86-12.75C7.4-1.66.37,2.77.12,9.52c-.27,7.22,7.31,12.17,13.83,8.99.45-.22.86-.53,1.3-.73l5.4,5.39c1.1,1.05,2.81.56,3.23-.88v-.88l-.35-.7h.01ZM15.9,12.05c-1.76,5.04-8.56,5.93-11.58,1.51-2.9-4.23,0-9.97,5.1-10.23,4.63-.24,8.01,4.35,6.49,8.72h-.01Z"/>
</svg>