<?xml version="1.0" encoding="UTF-8"?>
<svg id="Layer_1" data-name="Layer 1" xmlns="http://www.w3.org/2000/svg" viewBox="0 0 500 500">
  <defs>
    <style>
      .cls-1 {
        fill: #231f20;
      }
    </style>
  </defs>
  <path class="cls-1" d="M117.92,15.85c9.99-1.41,21.23,5.73,27.56,12.99,18.11,20.76,47.28,69.69,58.1,95.22,10.52,24.82,9.23,33.02-10.21,51.25-4.3,4.03-21.33,16.31-23,20.04-1.12,2.52,4.99,16.37,6.52,19.84,20.68,47,61.43,87.83,108.58,108.22,3.6,1.56,14.76,6.51,17.86,6.66,1.12.05,2.06-.04,2.88-.89,14.57-15.17,26.95-41.9,51.59-39.03,18.31,2.13,56.23,26.11,72.78,36.6,12.59,7.98,42.36,25.91,49.07,37.84,4.95,8.79,6.21,15.4,1.97,24.75-11.34,25.04-76.78,77.67-102.06,90.32-14.92,7.46-26.03,3.84-41.68.33C207.37,450.71,57.43,300.62,22.54,172.28c-2.58-9.51-8.37-32.76-6.68-41.69,2.51-13.25,32-50.99,41.78-62.7,11.15-13.34,43.71-49.7,60.28-52.04Z"/>
</svg>