<?xml version="1.0" encoding="UTF-8"?>
<svg id="Layer_1" data-name="Layer 1" xmlns="http://www.w3.org/2000/svg" viewBox="0 0 500 500">
  <path d="M500,118.16v263.67c-1.81,2.01-.75,5.38-1.22,8.05-3.1,17.47-18.13,31.8-35.5,34.81-138.81,2.5-277.95.39-416.88,1.07-21.14-.09-41.6-14.46-45.17-35.88-.45-2.67.56-6.04-1.22-8.05V118.16c2.16-26.52,21.33-44.14,48.29-43.99l405.31.06c21.92.45,40.81,13.97,45.17,35.88l1.22,8.06ZM450.2,103.52H49.8l168.93,168.47c18.32,16.67,42.61,16.77,61.55.97l169.91-169.45ZM29.3,375.98l126.88-126.33L29.3,124.02v251.95ZM470.7,375.98V124.02l-126.88,125.62,126.88,126.33ZM450.2,396.48l-127.31-125.91c-12.91,11.55-23.36,26.14-39.03,34.27-26.91,13.96-58.66,9.97-81.72-9.43-3.71-3.12-23.91-25.17-25.73-24.84l-126.6,125.91h400.39Z"/>
</svg>