<?xml version="1.0" encoding="UTF-8"?>
<svg id="Layer_1" xmlns="http://www.w3.org/2000/svg" version="1.1" viewBox="0 0 24 24">
  <!-- Generator: Adobe Illustrator 29.3.1, SVG Export Plug-In . SVG Version: 2.1.0 Build 151)  -->
  <path d="M20.69,15.03c0-.24-.07-.48-.24-.66l-7.98-7.98c-.26-.23-.68-.23-.94,0-2.69,2.75-5.51,5.41-8.13,8.21l-.09.43c.09,1.85-.12,3.8,0,5.64.07,1.11.97,2.51,2.19,2.51h4.25v-6.15h4.51v6.15h4.25c1.22,0,2.12-1.41,2.19-2.51.12-1.83-.09-3.79,0-5.64Z"/>
  <path d="M23.65,10.99l-3.7-3.72-.04-4.56c-.33-1.17-1.95-1.36-2.51-.27-.02.05-.14.31-.14.33v1.76c-.08.02-.09-.03-.14-.07-1.28-.98-2.42-2.98-4-3.46-1.21-.37-2.46-.13-3.44.67L.35,10.99c-1.03,1.25.44,2.89,1.78,2.02L11.32,3.83c.5-.41.87-.41,1.36,0l9.16,9.16c1.34.91,2.85-.73,1.81-2Z"/>
</svg>