<?xml version="1.0" encoding="UTF-8"?>
<svg id="Layer_1" data-name="Layer 1" xmlns="http://www.w3.org/2000/svg" viewBox="0 0 500 500">
  <defs>
    <style>
      .cls-1 {
        fill: #231f20;
      }
    </style>
  </defs>
  <path class="cls-1" d="M420.81,233.97c-2.67-15.64-23.46-16.88-27.8-1.61-2.05,42.82,1.98,86.26-2.09,128.77-5.72,17.39-20.08,26.17-37.9,27.53-31.78,2.42-66.12-2.16-98.16.47l-84.58,62.87c-12.15,6.24-7.27-15.34-7.15-20.81.19-8.5,1.23-20.42.88-28.22-.27-5.95-4.8-13.57-11.15-14.32-35.64-4.2-94.23,15.7-106.73-30.97.66-62.3-4.98-129.2-1.25-191.22,1.47-24.34,14.25-40.84,39.55-42.49,56.81-3.7,117.64,2.85,174.87.07,18.45-3.02,15.84-27.07-1.99-28.33-56.81,2.46-116.41-3.31-172.89-.06-35.29,2.03-62.16,24.61-66.88,60.07,3.51,65.38-4.55,135.45,0,200.27,1.98,28.3,27.72,56.81,56.2,60.01h59.57c1.07,0,1.4,2.38,1.51,3.37,1.19,10.13-1.94,21.06-1.01,31.28,2.31,25.5,29.91,39.25,51.49,25.16l79.3-59.37c31.73-2.93,66.85,2.44,98.18-.45,31.4-2.89,55.96-32.36,58.16-62.93,2.76-38.47-2.07-80.28-.12-119.09Z"/>
  <path class="cls-1" d="M455.28,137.41c10.76-16.09,40.29-35.07,24.21-56.84-10.1-13.68-34.87-12.17-49.76-18.6-12.75-15.88-18.38-45.36-44.24-41.22-17.09,2.73-24.92,30.11-35.5,41.65-13.76,6.01-40.3,5.21-49.04,18.34-15.33,23.02,14.19,40.72,25.09,57.67.54,14.32-6.68,37.83.29,50.41,14.21,25.65,45.62.53,64.78-3.33,17.47,4.42,41.18,23.93,58.15,9.38,15.07-12.92,3.61-40.37,6.03-57.45ZM426.21,130.81c.18,12.59,1.47,25.48,2.5,38.13-1.91,1.93-32.59-13.68-38.57-13.69-6.25-.01-26,10.73-33.88,13.02-1.23.36-2.39.87-3.72.67-1.27-1.33,1.85-26.58,1.98-30.71.1-3.09.17-6.14-.69-9.15-2.05-7.1-18.71-22.5-23.76-29.95-.55-.81-1.39-.93-.97-2.44,10.31-2.95,22.67-4.37,32.65-7.88,13.7-4.82,19.14-25.61,28.38-36.05,2.13-.07,17.43,29.95,23,33.62,5.64,3.72,36.88,8.72,38.04,10.31,1.88,2.6-24.87,27.84-24.96,34.12Z"/>
  <path class="cls-1" d="M302.27,207.01h-160.2c-11.75,1.42-15.12,16.57-6.96,24.1,1.22,1.13,3.08,1.9,4.51,2.82l162.66.47c15.03-2.12,15.33-25.54,0-27.39Z"/>
  <path class="cls-1" d="M145.3,277.62c-17.51.71-20.28,22.46-4.13,27.99h88.75c17.37-6.76,13.96-26.17-4.94-28.15-25.01-2.62-54.24,1.48-79.68.16Z"/>
</svg>