<?xml version="1.0" encoding="UTF-8"?>
<svg id="Layer_1" data-name="Layer 1" xmlns="http://www.w3.org/2000/svg" viewBox="0 0 500 500">
  <path d="M41.99,433.11c0,16.37,23,36.31,39.57,35.63,114.77-.78,229.85,1.65,344.44-1.23,13.64-1.79,32.01-20.87,32.01-34.4v-245.61H41.99v245.61ZM350.33,239.49c6.02-1.01,23.41-.82,29.41.4,10.3,2.1,15.84,11.41,16.73,21.36,1.67,18.71.98,39.39-21.97,41.47-16.55,1.5-39.35,1.12-41.48-20.01-1.53-15.24-2.32-39.92,17.31-43.21ZM333.02,373.55c1.13-11.23,9.34-18.43,20.28-19.76,18.93-2.29,41.05-1.67,43.17,21.72,1.51,16.59,1.11,39.36-20.01,41.48-37.39,3.75-47.19-6.02-43.43-43.43ZM281.02,400.64c-.9,5.28-5.92,11.41-10.61,13.81-6.56,3.36-26.81,3.49-34.33,2.3-9.24-1.46-16.55-9.6-17.37-18.77-.55-6.21-.75-24.09.71-29.64,2.1-8.02,10.72-13.51,18.63-14.58,14.87-2.01,41.1-1.81,43.21,17.81.66,6.2.77,23.15-.24,29.07ZM219.18,254.83c1.57-7.39,9.55-14.17,16.89-15.33,5.74-.91,22.11-.91,27.85,0,8.55,1.35,16.4,9.19,17.33,17.83.63,5.86.81,22.68-.06,28.26-1.56,9.98-11.55,16.21-20.95,17.14-14.68,1.45-39.43,1.24-41.5-18.05-.65-6.1-.77-24.18.44-29.84ZM103.48,262.17c.86-10.98,6.6-20.97,18.36-22.66,9.98-1.43,30.49-1.77,38.26,5.18,8.68,7.76,8.19,28.9,6.64,39.73-1.6,11.14-11.12,17.36-21.73,18.31-34.19,3.06-44.23-6.23-41.52-40.55ZM123.81,353.79c16.77-2.11,41.01-1.75,43.17,19.76,1.63,16.28,2.26,41.05-19.03,43.45-6.03.68-20.14.6-26.12-.26-11.73-1.68-17.49-11.66-18.36-22.66-1.37-17.44-.94-37.61,20.33-40.29Z"/>
  <path d="M455.84,90.55c-7.2-20.83-28.5-30.27-49.59-28.05v18.07c0,12.37-16.61,28.1-27.82,31.75-33.35,10.86-59.83-16.77-56.16-49.82h-144.54c3.78,32.56-22.5,60.4-55.63,50.27-11.15-3.41-28.35-20.1-28.35-32.2v-18.07h-14.16c-15.42,0-37.6,20.1-37.6,35.64v67.87h416.02v-67.87c0-.74-1.72-6.31-2.17-7.6Z"/>
  <path d="M156.24,73.72c1.66-16.57,1-44.74-22.66-42.24-7.54.8-15.98,6.91-17.88,14.39-1.18,4.62-1.12,25.58-.48,30.81,2.66,21.76,38.36,23.61,41.03-2.96Z"/>
  <path d="M384.31,79.13c1.18-4.62,1.12-25.58.48-30.81-1.27-10.37-12.65-17.93-22.7-16.84-20.08,2.18-19.69,26-18.38,41.31,2.24,26.05,35.44,26.61,40.59,6.34Z"/>
</svg>