<?xml version="1.0" encoding="UTF-8"?>
<svg id="Layer_1" data-name="Layer 1" xmlns="http://www.w3.org/2000/svg" viewBox="0 0 500 500">
  <defs>
    <style>
      .cls-1 {
        fill: #231f20;
      }
    </style>
  </defs>
  <path class="cls-1" d="M277.78,0l-.04,48.29c.02,1.3.34,2.62,1.41,3.46,1.28,1.01,27.06,4.79,31.98,6.04,19.46,4.94,38.45,12.81,55.33,23.59l-36.02,54.64c-17.66-8.92-36.39-15.6-56.19-17.97-34.39-4.11-105.11,4.65-90.34,55.26,4.9,16.81,27.74,25.75,42.69,31.38,65.62,24.74,147.93,33.54,158.39,120.36,8.34,69.22-41.28,111.85-105.53,120.57-.57.17-1.67.84-1.67,1.25v52.14h-66.28v-54.58c-36.36-6.83-72.22-23.98-97.4-51.3-.55-3.12,41.01-37.96,45.21-44.27l1.99-.95c15.01,13.7,32.24,23.55,51.93,29,37.24,10.31,122.07,6.63,104.01-52.36-6.84-22.34-35.58-32-55.54-39-56.92-19.96-128.21-30.87-143.33-101.31-14.36-66.92,30.19-115.09,92.68-128.63L211.5,0h66.28Z"/>
</svg>