<?xml version="1.0" encoding="UTF-8"?>
<svg id="Layer_1" data-name="Layer 1" xmlns="http://www.w3.org/2000/svg" viewBox="0 0 468.14 500">
  <defs>
    <style>
      .cls-1 {
        fill: #231f20;
      }
    </style>
  </defs>
  <path class="cls-1" d="M380.69,0c2.03,1.88,5.39.66,8.07,1.21,18.57,3.78,33.02,21.43,33.96,40.26v430.71c-.99,10.48-4.05,21.99-14.94,26.07-2.32.87-4.91.17-6.58,1.72h-1.95c-8.63-1.48-14.31-5.58-20.97-10.77-43.87-34.15-84.74-75.14-128.5-109.77-9.12-5.59-20.06-5.59-29.18,0l-131.43,111.72c-5.64,4.98-11.78,7.23-19.02,8.82-.64-.05-1.32.08-1.95,0-14.7-1.87-21.58-14.06-22.5-27.8,1.03-146.28-1.89-292.96,1.47-439.01C52.18,14.32,69.57,1.7,88.69,0h291.99Z"/>
</svg>