<?xml version="1.0" encoding="UTF-8"?>
<svg id="Layer_1" xmlns="http://www.w3.org/2000/svg" version="1.1" viewBox="0 0 24 24">
  <!-- Generator: Adobe Illustrator 29.3.1, SVG Export Plug-In . SVG Version: 2.1.0 Build 151)  -->
  <defs>
    <style>
      .st0 {
        fill: #231f20;
      }
    </style>
  </defs>
  <path class="st0" d="M19.07.2c.1.09.25.03.38.06.88.18,1.56,1.01,1.6,1.9v20.32c-.05.49-.19,1.04-.7,1.23-.11.04-.23,0-.31.08h-.09c-.41-.07-.68-.26-.99-.51-2.07-1.61-4-3.55-6.06-5.18-.43-.26-.95-.26-1.38,0l-6.2,5.27c-.27.24-.56.34-.9.42h-.09c-.69-.09-1.02-.66-1.06-1.31.05-6.9-.09-13.82.07-20.71.24-.89,1.06-1.49,1.96-1.57h13.78,0Z"/>
</svg>