<?xml version="1.0" encoding="UTF-8"?>
<svg id="Layer_1" xmlns="http://www.w3.org/2000/svg" version="1.1" viewBox="0 0 24 24">
  <!-- Generator: Adobe Illustrator 29.3.1, SVG Export Plug-In . SVG Version: 2.1.0 Build 151)  -->
  <path d="M.89,21.77c0,.87,1.23,1.94,2.11,1.9,6.13-.04,12.28.09,18.4-.07.73-.1,1.71-1.11,1.71-1.84v-13.12H.89v13.12ZM17.36,11.43c.32-.05,1.25-.04,1.57.02.55.11.85.61.89,1.14.09,1,.05,2.1-1.17,2.22-.88.08-2.1.06-2.22-1.07-.08-.81-.12-2.13.92-2.31ZM16.43,18.59c.06-.6.5-.98,1.08-1.06,1.01-.12,2.19-.09,2.31,1.16.08.89.06,2.1-1.07,2.22-2,.2-2.52-.32-2.32-2.32ZM13.66,20.04c-.05.28-.32.61-.57.74-.35.18-1.43.19-1.83.12-.49-.08-.88-.51-.93-1-.03-.33-.04-1.29.04-1.58.11-.43.57-.72,1-.78.79-.11,2.2-.1,2.31.95.04.33.04,1.24-.01,1.55ZM10.35,12.25c.08-.39.51-.76.9-.82.31-.05,1.18-.05,1.49,0,.46.07.88.49.93.95.03.31.04,1.21,0,1.51-.08.53-.62.87-1.12.92-.78.08-2.11.07-2.22-.96-.03-.33-.04-1.29.02-1.59ZM4.17,12.64c.05-.59.35-1.12.98-1.21.53-.08,1.63-.09,2.04.28.46.41.44,1.54.35,2.12-.09.6-.59.93-1.16.98-1.83.16-2.36-.33-2.22-2.17ZM5.26,17.54c.9-.11,2.19-.09,2.31,1.06.09.87.12,2.19-1.02,2.32-.32.04-1.08.03-1.4-.01-.63-.09-.93-.62-.98-1.21-.07-.93-.05-2.01,1.09-2.15Z"/>
  <path d="M23,3.47c-.38-1.11-1.52-1.62-2.65-1.5v.97c0,.66-.89,1.5-1.49,1.7-1.78.58-3.2-.9-3-2.66h-7.72c.2,1.74-1.2,3.23-2.97,2.69-.6-.18-1.51-1.07-1.51-1.72v-.97h-.76c-.82,0-2.01,1.07-2.01,1.9v3.63h22.22v-3.63s-.09-.34-.12-.41Z"/>
  <path d="M6.99,2.58c.09-.89.05-2.39-1.21-2.26-.4.04-.85.37-.96.77-.06.25-.06,1.37-.03,1.65.14,1.16,2.05,1.26,2.19-.16Z"/>
  <path d="M19.17,2.86c.06-.25.06-1.37.03-1.65-.07-.55-.68-.96-1.21-.9-1.07.12-1.05,1.39-.98,2.21.12,1.39,1.89,1.42,2.17.34Z"/>
</svg>