<?xml version="1.0" encoding="UTF-8"?>
<svg id="Layer_1" data-name="Layer 1" xmlns="http://www.w3.org/2000/svg" viewBox="0 0 468.14 500">
  <path d="M230.09,15.91c179.47-2.66,295.72,190.14,208.38,348.02-85.97,155.39-309.15,160.69-402.92,10C-60.47,219.64,49.26,18.59,230.09,15.91ZM215.45,47.17c-86.93,6.5-161.84,74.43-179.99,158.88-10.78,50.16-1.91,114.59,28.97,156.6.61.83.91,1.93,2.23,1.58,79.07-81.42,207.08-93.87,300.66-29.08,12.62,8.73,23.76,19.08,35.32,29.12,50.24-72.94,45.85-174.21-10.26-242.65-43.77-53.39-107.84-79.61-176.93-74.44Z"/>
  <path d="M235.83,78.49c76.77.89,120.16,93.12,70.61,152.44-60.15,72-175.48,21.82-164.88-71.13,5.3-46.53,48.02-81.84,94.28-81.3Z"/>
</svg>