<?xml version="1.0" encoding="UTF-8"?>
<svg id="Layer_1" data-name="Layer 1" xmlns="http://www.w3.org/2000/svg" viewBox="0 0 500 500.1">
  <path d="M492.7,432.69l-118.57-119.81c3.55-8.09,8.69-16.05,12.46-24.35,46.46-102.26-.18-222.77-102.05-267.79C153.88-36.99,6.23,55.91.93,197.81c-5.66,151.55,153.56,255.53,290.43,188.87,9.38-4.57,18.09-11.03,27.28-15.38l113.46,113.2c23.05,22.02,59.05,11.69,67.9-18.58v-18.55l-7.3-14.67ZM332.3,250.85c-36.95,105.91-179.76,124.57-243.25,31.78-60.84-88.91.18-209.34,107.04-214.86,97.23-5.02,168.23,91.3,136.21,183.08Z"/>
</svg>