<?xml version="1.0" encoding="UTF-8"?>
<svg id="Layer_1" data-name="Layer 1" xmlns="http://www.w3.org/2000/svg" viewBox="0 0 500 500.1">
  <defs>
    <style>
      .cls-1 {
        fill: #231f20;
      }
    </style>
  </defs>
  <path class="cls-1" d="M290.3,336.27c-23.8-80.16-100.74-136.89-184.83-134.02v-17.09c0-6.63-9.26-11.98-15.37-8.54L3,242.85l-3,4.32v5.86c2.02,2.36,4,4.76,6.38,6.81,26.29,22.57,56.58,41.01,83.13,63.35,5.44,4.43,15.96-.5,15.96-7.16v-18.07c35.29-2.75,68.87,13.03,86.1,44.27,20.6,37.34,5.64,96.41,10.55,137.88.81,6.81,6.1,8.77,12.19,9.29,18.41,1.56,52.95,1.57,71.36,0,6.57-.56,11.89-2.82,12.22-10.24-2.39-47.14,5.96-97.23-7.6-142.88Z"/>
  <path class="cls-1" d="M492.09,238.97c-26.21-21.65-55.68-40.89-82.18-62.35-6.11-3.44-15.37,1.91-15.37,8.54v17.09c-26.08-1.09-51.93,4.55-76.17,13.67v111.33c20.16-20.96,46.96-31.27,76.17-29.3v17.09c0,6.54,9.44,13.36,15.31,8.47l86.74-65.59,3.42-4.89v-5.86c-2.06-3.71-4.73-5.57-7.91-8.2Z"/>
  <path class="cls-1" d="M322.89,100.55c-22.38-25.34-41.31-60.09-64.13-84.3-6.44-6.83-10.93-6.77-17.52,0l-64.13,84.3c-4.99,4.65.13,15.77,6,15.77h19.04l.48,86.92c30.72,16.58,57.27,38.47,77.46,67.07l17.76,28.63V116.31h19.04c.29,0,4.4-2.42,4.91-2.9,3.47-3.28,4.22-9.14,1.09-12.86Z"/>
</svg>